<svg id="heart-2" xmlns="http://www.w3.org/2000/svg" xmlns:xlink="http://www.w3.org/1999/xlink" viewBox="0 0 113 117.27"><defs><style>.cls-1{fill:url(#linear-gradient);}.cls-2{fill:#fd5d60;}</style><linearGradient id="linear-gradient" x1="145.1" y1="437.5" x2="200.62" y2="545" gradientUnits="userSpaceOnUse"><stop offset="0.01" stop-color="#fefefe"/><stop offset="0.29" stop-color="#ffb1b8"/><stop offset="0.46" stop-color="#ffb3bd"/><stop offset="0.63" stop-color="#ffb8c8"/><stop offset="0.71" stop-color="#ffbdcc"/><stop offset="0.81" stop-color="#ffccd7"/><stop offset="0.91" stop-color="#ffe4ea"/><stop offset="1" stop-color="#fff"/></linearGradient></defs><title>heart-2</title><path class="cls-1" d="M138.39,443.19a28.19,28.19,0,0,0-16.24,5.07c-7.41,5.26-11.89,14.06-12.9,23.09s1.21,18.21,5.16,26.39c7.91,16.35,22.21,28.52,34.47,41.94a203.88,203.88,0,0,1,16.62,20.78,203.88,203.88,0,0,1,16.62-20.78c12.26-13.42,26.56-25.59,34.47-41.94,3.95-8.18,6.18-17.36,5.16-26.39s-5.49-17.83-12.9-23.09a27.8,27.8,0,0,0-43.35,17.19,28.28,28.28,0,0,0-17-20.36A27.59,27.59,0,0,0,138.39,443.19Z" transform="translate(-109 -443.19)"/><path class="cls-2" d="M204.55,487.55v-3.91h-4.72v.66h4v3.25Zm7.06-32.2h-6.78v.95h5.72V461h1.06Zm-4.2,46.76v-.31h-1.85l-.29.3v1.51h2.14v-.3H205.6v-1.2ZM203.62,498v-6.8h-7.89v1.1h6.65V498ZM195,515.12v-1.83h-2.13v.3h1.79v1.54Zm-1.73,6.65v-1.83h-2.13v.3h1.79v1.54Zm17.91-52.65,0-5.12-5.95,0v.83h5v4.3Zm-1.11,6h1.13v-.86h-5.07V471.1h5.07v-.86h-6v4.85H210Zm-1.57,20v-.31h-1.84l-.29.29v1.52h2.14v-.31h-1.81V495Zm-.34,3.66h.33V497h-2.13v.29h1.79Zm-.73,7.08V504h-2.13v.3h1.8v1.46Zm-16.79,14.48V520h-1.84l-.29.29v1.51h2.14v-.31H188.8v-1.2Zm19.8-37.51v-4.07h-4.73v.65h4v3.42Zm0,4.07h-4v-2.49h4v-.69h-4.76v3.86h4.76ZM187.69,511v-1.51h-1.83v.25h1.54V511Zm-14.36,31.61v-1.83H171.2v.3H173v1.54Zm-7.68-30.52v-1.76h-2.12v.3h1.79v1.46Zm7.93,7.61h-2.81V518h2.81v-.48h-3.32v2.7h3.32Zm-2.89,25.06V543h-2.13v.3h1.8v1.46Zm0-3.66v-.31h-1.85l-.29.3v1.51h2.13v-.3h-1.81v-1.2Zm11-24.25V514h-3.31v.46h2.79v2.39Zm3.68,3.4v-.31h-1.85l-.29.29v1.52h2.14v-.3h-1.81v-1.2Zm5.22,3.67v-1.75h-2.13v.29h1.8v1.46Zm-5.23,0v-1.76h-2.13v.3H185v1.46Zm-3-11.88v-1.75h-2.13v.3H182V512Zm5.63,9.72v-1.83h-2.13v.29h1.79v1.53Zm-6.53,13.11v1.52h2.14v-.3h-1.81v-1.19h1.81v-.31h-1.85Zm.91-26.49v-.31h-1.84l-.29.3v1.51h2.14v-.31h-1.81v-1.2Zm-1.48,21v-8.15h-9.47v1.31h8v6.84Zm.06-79.52h.41v-.3h-1.81v-1.12h1.81v-.31h-2.14v1.73H181ZM163.4,465.72v-1.83h-2.13v.29h1.79v1.54ZM156,467.85h2.13v-.31h-1.81v-1.12h1.81v-.3H156ZM153.65,473h4v3.42h.74v-4.07h-4.73Zm6.86,2.72v3.37h4.76v-.68h-4v-2.65h4v-.69h-4.1Zm2.52-4.44h.46V471h-2.14v1.73h2.13v-.3h-1.81v-1.12ZM161.35,469h1.79v1.54h.33v-1.84h-2.13Zm-.08-1.17h2.14v-.3H161.6v-1.12h1.81v-.31h-2.14ZM210,503.63v-1.84h-2.12v.3h1.79v1.54ZM140.72,451h5.19v4.45h1v-5.31h-6.15Zm5.35-3.36h-2.71v-1.67h2.71v-.47h-3.2v2.6h3.2Zm12.09,18.1v-1.83H156v.3h1.79v1.53Zm-3.73-14.66v-.9h-5.34l-.85.85v4.39h6.19v-.88h-5.24v-3.46Zm-2.66-2.2h.4v-.31h-1.81v-1.12h1.81v-.3H150v1.74h1.73ZM140.72,461.6h6.19v-.88h-5.24v-3.24h5.24v-.9h-6.19Zm40.11-7.89h.33v-1.83H179v.3h1.79Zm18.89-6.82v-1.75H197.6v.3h1.79v1.46Zm2.24,0h.41v-.3h-1.81v-1.12h1.81v-.31h-2.14v1.73H202Zm9.14,49.68v-1.83H209V495h1.79v1.54ZM193.62,445.9H194v-1.76h-2.12v.29h1.79Zm19,43.84v-.31h-1.84l-.3.3v1.51h2.14v-.3h-1.81v-1.2Zm-.34,3.67h.33v-1.76h-2.12v.3h1.79Zm-15.78-44.24h5.72v4.9h1.06v-5.85h-6.78Zm-65.46-3.25h2.68v2.18h.5v-2.63h-3.18Zm49.69,9.93h.4v-.31h-1.81v-1.12h1.81v-.3H179v1.74h1.73Zm5.48-8.11h.34v-1.83h-2.13v.29h1.8Zm4.71-1.87h.41v-.3h-1.81v-1.12h1.81v-.31h-2.14v1.73H191ZM188.11,454h6.83v-1h-5.78v-3.82h5.78v-1h-5.89l-.94.93Zm-1.92-4.16h.41v-.31h-1.81v-1.12h1.81v-.31h-2.14v1.73h1.73Zm-7.84,8.32h3.29V461h.62v-3.37h-3.91ZM165.25,480h-4.72v.66h4v3.25h.74Zm-.1,6.23v-.31H163.3l-.29.29v1.52h2.14v-.3h-1.81v-1.19Zm-5.28,3.37v-.69h-4.76v3.86h4.76v-.68h-4v-2.49Zm8.61-27.72h.29v-1.52h-1.69c0,.09-.08.17-.11.26h1.51Zm-5,46.54v1.51h2.14v-.3h-1.81v-1.2h1.81v-.31h-1.84ZM166.58,469h1.79v1.54h.34v-1.83h-2.13Zm-5.74,3.69V471h-2.13v.3h1.8v1.46Zm7.2-5.86h2.13v-.31h-1.81v-1.12h1.81v-.3H168Zm-24,1.09,2.92,0,0,2.38h.54l0-2.85-3.45-.05Zm-.59,16.66h4V488h.74v-4.07h-4.72Zm4.75,5v-.69h-4.75v3.86h4.75v-.68h-4v-2.49ZM142,481.15h4.75v-.67h-4V478h4v-.69H142Zm-1.61,14.38v7.54h10.64v-1.52h-9v-5.94h9v-1.54h-9.18ZM142,473h4v3.42h.74v-4.07H142Zm10.49,8.21v-3.9h-4.72V478h4v3.24Zm47.21-2.5h-2.81V477h2.81v-.48h-3.33v2.7h3.33Zm-.43,7.63V486h-1.85l-.29.29v1.52h2.14v-.3h-1.81v-1.19Zm-2.61,1.51V486h-2.13v.3h1.79v1.54Zm2.26,2.16h.33v-1.76h-2.12v.3h1.79Zm-4.47,19.15v-1.57h-1.83v.26h1.54v1.32Zm-4.74,6v-1.83h-2.12v.29h1.79v1.53Zm10.05-26.87V490h2.14v-.31h-1.81v-1.12h1.81v-.31h-2.14ZM175,472.07v-1.76h-2.13v.3h1.79v1.46Zm-8.57,3.62h4v3.41h.74V475h-4.73Zm33.41,10.61h1.79v1.53h.33V486h-2.12Zm-27.64-10.59v3.37h4.76v-.68h-4v-2.65h4v-.69h-4.1Zm31.62-.57v-4.91l-5.94,0V471h5v4.09Zm-37.19-2.45h2.14v-.31h-1.81v-1.12h1.81V471h-2.14Zm-31.17,17.89v-.51h-3.58V493h3.58v-.51h-3v-1.87Zm-3.58-3.75h3v2.57h.55v-3.06h-3.55ZM130.29,484h1.79v1.46h.33v-1.75h-2.12Zm0-2.22v1.51h2.14V483h-1.81v-1.2h1.81v-.31h-1.84Zm4.76,1.53v-1.83h-2.12v.3h1.79v1.54Zm-8.39-9.36h7.51v-1.07h-6.35v-3.93h6.35v-1.08h-7.51Zm6.26,11.49h2.14v-.3h-1.81V484h1.81v-.31h-2.13Zm32.22,4.48v-1.76H163v.3h1.8v1.46ZM129.7,478.84h.46v-.31H128v1.74h2.13V480h-1.81v-1.12Zm24.28,14V488.9h-4.73v.66h4v3.25Zm-1.35,23.62h1.79V518h.33v-1.83h-2.12Zm1.67,2.24h.46v-.3h-2.14v1.74h2.14v-.31H153v-1.12Zm-2.19,1.45v-1.76H150v.3h1.79v1.46Zm-14.05-17V494H127.49v1.47h8.91v7.64Zm14.06,13.34v-.31h-1.84l-.29.3V518h2.14v-.3h-1.81v-1.2Zm-.29-49.53,0-3-3.45-.05v.48l2.91,0,0,2.5Zm-2.58,17.7V488H154v-.68h-4v-2.65h4V484H149.9Zm-.92-14.28,2,0h1.43v-.5h-1.26l-1.68,0,0-1.82,2.2,0h.74v-.5h-.57l-2.9,0Zm6.06-8.67v-5.09h-6.15v.86h5.19v4.23Zm-1,4.74h1.8v1.46h.34v-1.76H153.4Zm-11,20.9h-4v-2.65h4V484h-4.1l-.65.65V488h4.75ZM147.79,473v3.37h4.75v-.68h-4v-2.66h4v-.68h-4.1Zm-18.37,12.39h.41v-.31H128V484h1.81v-.31h-2.14v1.73h1.73Zm-2,4H131v-.51h-3v-2h3v-.51h-3.08l-.49.49Zm2.39-6.11v-1.83H127.7v.29h1.8v1.54Zm11.07-2.07v-3.9h-4.73V478h4v3.24Zm-10.75-3.07V476.3H128v.29h1.79v1.53Zm9-13.84v-.51l-3,0-.49.47,0,2.46,3.48.05v-.49l-2.94,0,0-1.95Zm-.64,5.95H139l0-2.85-3.45-.05v.48l2.92,0Zm65.84,37.24v2.35h3.33v-.47H204.8V507.5h2.82V507h-2.87Zm-2.52,9.4v-1.83h-2.12v.29h1.79v1.53Zm-6.91,5.86h1.54V524h.29v-1.51h-1.83Zm-19.39,20.35h1.79v1.46h.33V542.8h-2.13Zm10.71-16.78v-.56h-3.36l-.54.54v2.76h3.9v-.56h-3.3v-2.18Zm0,6.69v-3.2h-3.88v.54h3.27V533Zm-10.7,7.87v1.52h2.14v-.3h-1.81v-1.19h1.81v-.31h-1.85Zm5.49-8.31v-1.38h-9.53v7.72H181v-1.36H172.9v-5Zm11.88-8.66h.41v-.3h-1.81v-1.12h1.81v-.31h-2.14v1.73h1.73Zm4.29-3.08h1.54v1.33h.17L199,522v-1.45h-1.83Zm2.35-13.32V507h-2.87l-.46.46v2.35h3.33v-.47h-2.82V507.5ZM197,517.57h1.8V519h.34v-1.76H197Zm-2.15,3.26v1.31h1.84v-.26h-1.56v-1h1.56v-.27h-1.59Zm4.6-7.63v-2.73h-3.3v.46H199v2.27ZM197,515.35v1.52h2.14v-.3h-1.81v-1.19h1.81v-.31H197.3Zm-6,13.72v-3.34H187.1v.53h3.26v2.81Zm-33.37.32v-8.15h-9.47v1.31h8v6.84Zm2.22-9.29H160v-.3h-1.81v-1.12H160v-.31h-2.14v1.73h2Zm-13.94-8.78v1.73H148v-.3h-1.81v-1.12H148v-.31h-2.14Zm2.05,6.45v-1.83H145.8v.29h1.8v1.54Zm25.41,26.67h-1.81v-1.12h1.81V543H171.2v1.73h2.14ZM148,510.92v-1.83h-2.13v.3h1.8v1.54Zm11.29,33.65v-1.75h-2.13v.3H159v1.46Zm-13.5-26.4v1.73h2.14v-.3h-1.81v-1.12h1.81v-.31H145.8Zm17.67,37.7v1.52h2.14v-.3h-1.81v-1.19h1.81v-.31h-1.85Zm-3.65-13v1.73H162v-.3h-1.81v-1.12H162v-.31h-2.14Zm7.06,10.49h-3.72V551h3.72v-.63h-4.39v3.55h4.39Zm2.28-22.13h-9.47v1.32h8V539h1.49Zm-7.22,11.24v-1.83h-2.12v.3h1.79v1.54Zm-2.62-1.51v-.31h-1.84l-.3.3v1.51h2.14v-.31h-1.81v-1.2Zm-10-27.06H151v-8.74H140.41v1.47h8.91Zm-29.8-7.27h3.78v5.24c.53.68,1.07,1.36,1.62,2h0v-8.74h-6.38C118.89,505.6,119.19,506.1,119.52,506.58Zm22.56,25.92h2.31v2.39l1.48,1.56v-5.27h-5.06ZM158.45,551h2.31v3h.69v-3.6H158Zm-12.4-106.73-.5-.13v.75h.5Zm56.2,71.11v1.51h1.32l.26-.3h-1.25v-1.2h1.81v-.31h-1.84ZM119.6,454.44h.56v-3.11h-1.62l-.48.5h1.54Zm5.56-8-.33.18v1.09h.33Zm38.63,111.65h1.47v1.46h.33V557.8h-2ZM214.21,497v1.74h1.88c.06-.1.11-.2.16-.3h-1.72v-1.12h1.81V497h-2.14Zm1.55-5h1.79v1.46h.33v-1.75h-2.12ZM130,449.85h.41v-.3H128.6v-1.12h1.81v-.31h-2.14v1.73H130Zm61.83,76.44v2.76h.43l.54-.56h-.37v-2.18h2.47l.54-.56h-3.07ZM187.1,533h1.37l.54-.56H187.7v-2H191v-.55h-3.9Zm12.27-12.12v.74a4.12,4.12,0,0,1,.28-.31v-.42H200l.24-.27h-.65ZM138.21,443.2l-.5,0v1.65h.5ZM213.71,495v-.31h-1.84l-.3.3v1.51h2.14v-.3H211.9V495Zm2-5.31v1.52h2.14v-.31h-1.81v-1.19h1.81v-.31h-1.85Zm-2.07,9V497h-2.12v.3h1.79v1.46Zm-43.18-44.35c-.1.14-.2.29-.31.43v.07h.31Zm40,47.74v1.52h2.14v-.31h-1.81v-1.19h1.81v-.31H210.8Zm-.86,3.66h.4v-.3h-1.81v-1.12h1.81V504h-2.14v1.74h1.73Zm6.69-9.2v-1.84h-2.12v.3H216v1.53Zm-19.74-53.08-.33-.05v.31h.34Zm-5.23-.25H191v.5h.34Zm25.95,36.1h4v3.42h.12c.22-1.35.38-2.71.47-4.07h-4.58Zm-11.2-32.76h-.32v-.18l-.33-.16v.64h1.19Zm12.37,13.34h-4.19v-3.57h2.18c-.22-.33-.43-.66-.66-1h-2.57v5.54h5.68C218.77,460.56,218.63,460.23,218.48,459.91Zm1.65,4.11h-.27v.83h.54C220.32,464.57,220.22,464.3,220.13,464Zm-2.82,23.48h3.09c.06-.23.13-.45.18-.68h-2.53v-2.49h3.09c0-.23.08-.46.13-.69h-4Zm-102.93-8.68h1.79v1.46h.33v-1.76h-2.13Zm0-2.22v1.52h2.14v-.3h-1.81v-1.19h1.81v-.31h-1.84Zm3.76,7.53V482.3H116v.29h1.79v1.53Zm-5.23,0V482.3h-2.12v.3h1.79v1.54Zm6.23-6V476.3H117v.29h1.79v1.53Zm-5.76,4.47v1.52h2.14v-.3h-1.81v-1.19h1.81v-.31h-1.84Zm11.39-32.75h.4v-.31h-1.81v-1.12h1.81v-.3H123v1.74h1.73Zm1.87,39.55v-3.06h-3.55v.49h3v2.57Zm-2-35.49h-3.07v-2h3.07v-.53h-3.13l-.5.5v2.58h3.63Zm-13.65,26.37h.33v-1.75h-2.13v.3h1.79ZM124,458.1h.57v-3H121v.5h3Zm-3.82-.55h-3.07v-1.9h3.07v-.53h-3.63v2.95h3.63Zm4.73,3.58v-1.08h-6.47l-1,1v5.32h7.5v-1.07h-6.35v-4.2Zm0,17V476.3h-2.12v.3h1.79v1.54Zm-7.86,12.15v-1.83h-2.12v.3h1.79v1.54Zm10.12-10h.33v-1.76h-2.13v.29h1.79Zm-2.65,0h.4V480h-1.81v-1.12h1.81v-.31h-2.14v1.73h1.74ZM123.7,474h1.17v-6.16h-7.46v1h6.29Zm-1.42,4.53h-2.13v.3h1.79v1.46h.33Zm5.14-28.66h.34v-1.75h-2.13v.29h1.8Zm2.64-2.15h.34v-1.83h-2.13v.29h1.79Zm-18.78,30.09h-1.81v-1.2h1.81v-.31h-1.84l-.29.3v1.51h2.14Zm34.11,31.6v-.31h-1.85l-.29.29v1.51h2.13v-.31h-1.81v-1.2Zm-35.12-23.18v-1.7h-.38C110,485.1,110.14,485.66,110.27,486.23Zm1.55,4v-1.83h-1l.09.29h.55v1.54Zm-2.26-7.66h.72v-.31h-.77C109.53,482.41,109.54,482.51,109.56,482.61Zm5.61,3.68h.33v-1.76h-2.13v.29h1.79Zm3.58-6h.4V480h-1.81v-1.12h1.81v-.31H117v1.74h1.73Zm-6,6h.17V486h-1.81v-1.12h1.81v-.31h-2.14v1.73h2Zm15.73-31.82h.57v-3.11h-3.61v.5h3Zm11.59,61.81v-.31h-1.84l-.3.3v1.51h2.14v-.3h-1.81v-1.2Zm.08-6.85v-.31h-1.84l-.3.29v1.52h2.14v-.3h-1.81V509.4Zm2.62,1.51v-1.83h-2.13v.29h1.79v1.53Zm-2.71,9v-1.76h-2.12v.3h1.79v1.46ZM133,518.71v1.74h2.14v-.3H133.3V519h1.81v-.31H133Zm5.16-6.49h-9v-5.57h9v-1.54H127.49v8.63h10.64Zm-3,6.1v-1.84H133v.3h1.79v1.53Zm7.6-.56v-1.83h-2.13v.3h1.79v1.53Zm-12.36-1v1.51h2.14V518h-1.81v-1.2h1.81v-.31h-1.85Zm14.95,3.14v-1.76h-2.12v.29H145v1.46Zm0-3.67V516h-1.85l-.29.29v1.52h2.13v-.31H143.5v-1.19Zm.06-4.94h-2.12v.3H145v1.46h.33Zm-3.12,7.15h.46v-.31h-2.14v1.74h2.14v-.3H140.9v-1.12Zm.08-6.85h.46v-.31h-2.14v1.74h2.14v-.31H141v-1.12Zm-15.15-26.19v-1.76h-2.12V484h1.79v1.46Zm-12.75,3.34v-.31h-1.84l-.3.3v1.51h2.14V490h-1.81v-1.2Zm2.18,2.22h.45v-.31h-2.13v1.73h2.14v-.3h-1.81V491Zm1.09-6.15h.46v-.31H116v1.74h2.13V486h-1.81v-1.12Zm-3.29,7.59v-1.75h-2.12v.3h1.79v1.46ZM130.33,519h1.8v1.46h.34v-1.76h-2.13Zm-8.09-26v-2.93h-3.55v.49h3V493Zm-8.33-14.87V476.3h-2.12v.3h1.79v1.54Zm8.34,8.74v-.51h-3.08l-.49.49v2.53h3.57v-.51h-3v-2Zm-8.73-6.61h.4V480h-1.81v-1.12h1.81v-.31h-2.14v1.73h1.74Zm16,38h.33v-1.83h-2.13v.29h1.79Zm-4.48-35h2.14V483h-1.81v-1.19h1.81v-.31h-1.84l-.3.29Zm-2,9.7h3.58v-.51h-3v-1.87h3v-.51h-3.58Zm-.81-16.34v-.31h-1.84l-.29.3v1.51h2.14v-.31h-1.81v-1.2Zm41.82,26.49V494H153.53v1.47h8.91v7.64Zm30.42,12.72H195v-.31h-2.14v1.73H195V517h-1.81v-1.12Zm9.06-4.88v-.48h-3.32v2.7h3.32v-.47h-2.81V511Zm.09-10.32v-1.15h-7.94v6.44h7.94v-1.13H197v-4.16Zm-.11,9.22V507h-3.3v.46H203v2.39Zm4.83,1,.32-.42h-.32Zm2.26-13.63h.46V497H209v1.73h2.14v-.31H209.3v-1.12Zm-5.77,18,.22-.26h-.22Zm-.59-4.38h2.79v1.67l.52-.65v-1.48h-3.31Zm-22.57,7v-.48h-3.33v2.7h3.33v-.47h-2.81V518Zm-.25,19.14h1.79v1.35l.33-.36V536.8h-2.13Zm-13.65,9.33v3.11h4.39v-.62h-3.72v-2.46h3.72v-.63h-3.79Zm19.79-22.52H188v-.31h-1.81v-1.12H188v-.31h-2.14v1.74h1.73Zm4.38-6.63h.34v-1.75H190.2v.3H192Zm-7.89,20.27.33-.35v-.08h.07l.3-.31h-.7ZM205,446l-.33-.16v1.08H205Zm9.94,47.41h.41v-.3h-1.81V492h1.81v-.31h-2.14v1.74h1.73Zm-15.16-49h-1.81v-.73l-.33-.06v1.09h2.14Zm3.28.72h-.18v.29h.9Zm-35.36,98.17h.46V543H166v1.73h2.14v-.31H166.3v-1.12ZM181,447.74h.34V445.9h-.7l-.57.3H181Zm7.71-4.27c-.52.07-1,.15-1.55.25h1.55Zm-4.77,4h-1.81v-1.19H184v-.31h-1.85l-.29.29v1.52H184Zm10-4h-1.81v-.22h-.33v.52H194Zm17.49,39.3h4.76v-.68h-4V479.4h4v-.69h-4.1l-.66.65Zm-6.62-33.53V454h6.82v-1h-5.78v-3.82h4.29c-.42-.34-.86-.67-1.3-1h-3.1Zm10.46,42.05v-1.83h-2.13v.3H215v1.53Zm.89-3.7v-3.91h-4.73v.66h4v3.25Zm2.28-19.28-5.07,0v-3.34h5.07v-.86l-5.16,0-.83.82v4.24l6,0Zm-39.73-20.85H178l-.45.3h1.22Zm38.74,27.76h.93v-4.91l-5.94,0v.83h5ZM147.4,447.41h1.8v1.46h.34v-1.76H147.4Zm6,16.78v1.51h2.14v-.3h-1.81v-1.2h1.81v-.31h-1.85Zm-9.28.14,0,2.46,3.48,0v-.49l-2.94,0,0-1.95,2.94.05v-.51l-3,0Zm-8,8.69v3.37h4.75v-.68h-4v-2.66h4v-.68h-4.1Zm7.17-6.22,0-3-3.45-.05v.48l2.92,0,0,2.5Zm10.33,14.35h4.76v-.67h-4V478h4v-.69h-4.76Zm-13.83-10.93,2,0h1.44v-.5H142l-1.68,0,0-1.82,2.19,0h.75v-.5h-.58l-2.9,0Zm25.65,70.87v-.31h-1.85l-.29.29v1.52h2.14v-.3h-1.81v-1.19Zm-1.53-69.84h1.8v1.47h.34V471h-2.13Zm0-2.22v1.52h2.14v-.31h-1.81v-1.19h1.81v-.31h-1.84Zm-25.67-7.36h1v-5.09h-6.15v.86h5.19Zm20.35,4.74h1.8v1.46h.34v-1.75h-2.13Zm-3.52,18.19h4V488h.74v-4.07h-4.73Zm3.53-20.41v1.52h2.14v-.31H159v-1.19h1.81v-.31h-1.84Zm.07,4.84v1.51h2.14v-.3H159V469h1.81v-.3H159Zm9.38,73.57v-1.83H166v.29h1.79v1.54ZM160,518v-1.83h-2.12v.29h1.79V518Zm4.19-5.75h-9v-5.57h9v-1.54H153.53v8.63h10.64Zm2.68,37.33v-3.76h-4.36v.61h3.68v3.15Zm-1.39-4.79V543h-2.12v.29h1.79v1.46Zm-10.24-26.1H157v1.46h.33v-1.75h-2.13ZM130.42,493H131v-2.93h-3.55v.49h3Zm-3.76-32H133v5.39h1.17V460h-7.46Zm.86,16.78h-1.81v-1.19h1.81v-.31h-1.84l-.3.29v1.52h2.14Zm29.84,38.64v-.31h-1.84l-.3.29V518h2.14v-.31h-1.81v-1.19Zm-28.29-58.91H126v-1.9h3.07v-.53h-3.63v2.95h3.63Zm11.07,53.76H138v.29h1.79v1.46h.33Zm1.47-18.5h.74V488.9h-4.73v.66h4Zm13.15-44.19-.34-.26v.51h.34ZM152,543.1h1.79v1.46h.33v-1.76H152Zm5.12,3.32v2.82l.24.29h4.15v-.62h-3.72v-2.46h3.72v-.63h-3.79Zm-.36-4v-1.83h-2.12v.29h1.79v1.53ZM152,540.88v1.52h2.14v-.3h-1.81V540.9h1.81v-.31h-1.84Zm16.75,15V556c.11-.14.21-.29.32-.44h0Zm-2.59,0h1.79v1.28l.33-.46v-1.11h-2.12Zm0,3.67h.07l.26-.36v-1.06h.76l.23-.31H166.1Zm-51.75-64v2.07l.06.13c.5,1,1,2,1.58,3v-5.17h9v-1.54h-9.18Zm12.89,21.11v-.15h-.13Zm-9.93-13.57H125v-1.52h-8.56C116.72,502.06,117,502.57,117.31,503.07ZM167.82,551h3.68v1.37c.22-.3.45-.59.68-.89v-1.08h-4.36Zm-13.24-8.17v1.74h2.14v-.31h-1.81v-1.12h1.81v-.31h-2.14Zm-18.2-20.21v4c.88.92,1.77,1.84,2.66,2.75h6.86V528h-8.06v-5.33h8.06V521.3h-8.21Zm21.28,14.94H149.6v-5h8.06v-1.38h-9.53v7.7l0,0h9.51Zm-28.61-18.83.27.31h.56v-.31h-.83Zm81.45-14.39h1.79v1l.34-.53V504H210.5Zm-2.11,3.14h2.48l.32-.46h-2.8Zm4.75-5.37h1.12c.05-.1.11-.19.17-.29h-1.29ZM222,474.27h-1.22v-3.13h1l-.12-.86h-1.77v4.85H222C222,474.84,222,474.56,222,474.27Zm-3.58,19.12h.09l.24-.63V492H219c0-.1.08-.21.11-.31h-.73Zm-16.15,24.19H203l.26-.3h-1Zm16.16-27.86h1.37l.09-.29H218.4Zm-40.29,51.14h1.79v1.34l.33-.38v-1.25h-2.12Zm2.59,0v.41l.33-.38v0h0l.27-.31H181Zm-7.47,5.52h3.05l.5-.61h-3.55Zm4.87-2.17.33-.38v-.74h.66l.27-.31H178.1Zm6-9.37h1.79v.78l.33-.35v-.72h-2.12Zm15.54-17.58V519h2l.1-.12v-.19H200v-1.12h1.81v-.31h-2.14ZM197.13,524l.28-.3v-.91h.86l.25-.27h-1.39Zm-26.6-68.45v-.29h-.63c-.07.1-.14.19-.2.29h.83ZM111.65,491h.18v-.31h-.29C111.58,490.78,111.61,490.88,111.65,491Zm49.42-35.8v.24h.16Zm2.57,4.55h-1v-1h.48a2.15,2.15,0,0,0-.14-.26h-.37l-.25.26V460h1.36Zm-7.06-9.62h-.71V451h1.63Zm5.82,10.49H164v1.27h.29v-.7c-.1-.28-.2-.55-.32-.82H162.4Zm-9.77-13.43v.24h.4Zm14.56,19.7h.34v-1.76h-1.95c0,.1-.05.2-.07.3h1.69Zm11.2-17h.33v-1.75h-1.81l-.31.22v.08h1.79Zm-26.56-3.2v0h0ZM173,454.57h-1.69v-1.12H173v-.29h-1.5l-.5.64v1.05h2Zm2.14.29h.31v-1.71h-2v.28h1.67Zm-4.94,2h.37v-.28H169l-.18.28h1.3Zm-1.36,1.58H168c0,.09-.1.18-.14.27h.95Zm-3.37,6.68h0v.3h.09C165.47,465.31,165.44,465.21,165.42,465.11Zm-3.35-4.39h-5.24v-3.24h5.24v-.76l-.09-.14h-6.11v5h6.2Zm-39.88-10.85h.34v-1.76h-.15l-.23.15-.19.15h.24Zm-6.39,18h-6l-.21,1.08h6.19Zm-.68-9.74h.57v-3h-.34c-.12.17-.24.33-.35.5h.12Zm-.53,8.33h1.17V460h-3.28c-.16.34-.31.69-.46,1h2.57Zm34.95-20h-1.81v-1.2h1l-.26-.11-.53-.2h-.29l-.29.3v1.51h2.14Zm-39.72,37.72h.46v-.31h-.51C109.78,483.91,109.8,484,109.82,484.12Zm6-11.27h-6.35v-3c-.08.5-.15,1-.2,1.51-.1.85-.16,1.71-.2,2.57h6.75ZM133.07,451v4.39h6.19v-.88H134v-3.46h5.24v-.9h-5.34Zm-5.3-3.6H126v-1.19h1.81v-.31h-1.54l-.58.28h0v1.52h2.14Zm14.35-3h-2.71v-1.18h-.5v1.65h3.21Zm-.52,3.7h.5v-2.63h-3.19v.45h2.69Zm-7.33-3.7h-2.71V444l-.49.14v.7h3.2Zm4,3.21h-2.71v-1.67h2.71v-.47H135v2.6h3.2Zm48.53,69.66h.34v-1.76H185v.3h1.8Zm5.53-43.79v2.35h3.33v-.47H192.8V473.5h2.82V473h-2.87Zm3.77-3.67.46,0v-.31h-.35l-1.78,0,0,1.73,1.25,0h.89v-.31h-.77l-1,0,0-1.12Zm-24.67,42.26h2.14v-.31h-1.81v-1.12h1.81v-.31H171.4Zm20.4-44.59,0,1.52,2.14.05v-.31l-1.8,0,0-1.19,1.81,0v-.31l-1.85,0Zm2.26,18.85V486h-1.84l-.3.29v1.51h2.14v-.31h-1.81v-1.2Zm-2.31-16.63,1.8,0,0,1.46h.34l0-1.75-2.13,0Zm.53,13.42v1.73h2.14v-.3H192.6v-1.12h1.81v-.31h-2.14ZM175,508.35v1.52h2.14v-.3h-1.81v-1.19h1.81v-.31H175.3Zm2.13,3.69v-1.76H175v.29h1.8V512Zm12-41,1.25,0h.88v-.3h-.78l-1,0,0-1.12,1.35,0h.46v-.31h-.35l-1.78,0Zm-14.7,28.4h-7.89v1.1h6.65V506h1.24ZM194,490v-1.75h-2.12v.3h1.79V490Zm-2.75-21,0-1.83-2.12-.05v.29l1.79,0,0,1.54Zm-13.1,21.49v-1.76h-2.13V489h1.79v1.47Zm10.07-17H191v2.39h.52V473h-3.3Zm-1.73,11.41v-1.76H184.4v.3h1.8v1.46Zm-2.38-11.39v2.35h3.33v-.47h-2.82V473.5h2.82V473h-2.87Zm2.89,7.7h1.79v1.53h.33v-1.83H187Zm-.52-11.59,1.79,0,0,1.46h.34l0-1.75-2.13,0Zm8.56,9.61h.52v-2.73h-3.31v.46h2.79Zm-2.81,2h1.79v1.54h.34v-1.83h-2.13ZM185.94,498h7.94v-1.13h-6.72v-4.44h6.72v-1.15H187l-1.09,1.09Zm-2-11.16h1.79v1.54h.33V486.5h-2.13Zm7.83-1.93v-1.75h-2.13v.29h1.8v1.46Zm-3.5-5.7h3.32v-.47h-2.81V477h2.81v-.48h-3.32Zm1.38,2v1.52h2.14v-.31H190v-1.19h1.81v-.31h-1.84Zm-.92,2.23h.46v-.3H187v1.74h2.13v-.31h-1.81v-1.12Zm-2.18-1h-1.81v-1.2h1.81v-.31h-1.85l-.29.3v1.51h2.14Zm-2.38-5.47H187v2.27h.51v-2.73h-3.3Zm-10.6,39.92V514h-3.3v.46H173v2.39Zm22.83-43.39h2.79v2.39h.52V473h-3.31Zm-26,12.77v-.31h-1.84l-.3.29v1.51h2.14v-.31h-1.81v-1.2Zm-.9,28.27V514h-2.87l-.46.46v2.35h3.33v-.47h-2.82V514.5Zm0,3h-3.3v.46H169v2.27h.51Zm10.74-49.06v-.31h-1.84l-.3.29v1.52h2.14v-.31h-1.81v-1.19Zm-12,20H170v1.46h.34v-1.75h-2.13Zm-1.73,3.9V498h7.94v-1.13h-6.72v-4.44h6.72v-1.15H167.6Zm11.11,22.17V514h-2.87l-.46.46v2.35h3.33v-.47H174.8V514.5Zm7.39-4.61v-1.83h-2.13v.3h1.79v1.54Zm-1.08-19.42h2.14v-.3h-1.81V489h1.81v-.31h-2.14Zm1.93,17.36v1.31h1.84v-.26h-1.56v-1h1.56v-.27h-1.59Zm-9.55-15.54H183V498h1.23v-6.8h-7.88Zm.77,27.91h.52v-2.73h-3.31v.46h2.79Zm1-49.59h1.79v1.46h.33v-1.75h-2.12Zm.63,19.85h2.14v-.31H179V489h1.81v-.31H178.7ZM166.16,508.4H168v1.54h.34V508.1h-2.13Zm4.72-22.2h1.79v1.54H173v-1.83h-2.13Zm-3,24.45h.46v-.31h-2.14v1.74h2.14v-.3h-1.81v-1.12Zm3-20.78H173v-.3h-1.81v-1.12H173v-.31h-2.14Zm0,18.56v-.31h-1.85l-.29.29v1.52h2.14v-.31h-1.81v-1.19Zm-.35,3.67h.33v-1.76h-2.12v.29h1.79Zm3-2.16v-1.83H171.4v.29h1.79v1.54ZM181.29,489h1.79v1.46h.34v-1.76h-2.13ZM178,475.69h4v3.41h.74V475H178Zm0,8.16h4.75v-.68h-4v-2.49h4V480H178Zm-2,2.95v1.52h2.13V488h-1.81v-1.19h1.81v-.31h-1.85Zm.08-2.9h.74V480h-4.73v.66h4Zm4.68,4.43V486.5H178.7v.29h1.79v1.54Zm3-34.93H182v-1.19h1.81v-.31h-1.84l-.29.29v1.52h2.14Zm2.29.32h.34v-1.83h-2.13v.29h1.79Zm2.33-7.83h.33v-1.75H186.6v.3h1.79Zm8.15,15h6.83v-1h-5.78v-3.57h5.78v-1h-6.83Zm-.35-15h.41v-.31h-1.81v-1.12h1.81v-.31h-2.14v1.73h1.73ZM167.54,464.4h-1.79c0,.1-.05.2-.07.3h1.86Zm16.08-14.5H184v-1.76h-2.12v.29h1.79Zm-.5,8.32V461h3.94v-.56h-3.33v-2.2h3.33v-.57h-3.4Zm2.88-2.37h.41v-.3H184.6v-1.12h1.81v-.31h-2.14v1.73H186Zm6.34,57.76v-.31H190.5l-.29.29v1.51h2.14v-.31h-1.81v-1.2Zm.29-4.11V511h1.84v-.26h-1.56v-1h1.56v-.26h-1.85Zm-2.27.25h1.55V511h.28V509.5h-1.83Zm7.47-44.93v4.24l6,0v-.86h-5.07v-3.34h5.07V464l-5.16,0Zm6.74,14.58v-.69h-4.1l-.66.65v3.37h4.76v-.68h-4V479.4ZM196.28,490h.41v-.3h-1.81v-1.12h1.81v-.31h-2.14V490h1.73Zm-27.07-28.12h1.86v-.27H169.5v-1h1.57v-.27h-1.85Zm3.41-5h.31v-1.63h-2v.28h1.67ZM171.06,460v-1.59h-1.84v.26h1.55V460Zm-3,3.17h1.79v1.53h.33v-1.83H168Zm24.17,44.67v-.27h-1.59l-.25.26v1.3h1.85v-.26h-1.56v-1Zm-24.67-45h-1.38l-.09.31h1.47Zm1.24-3.16h-1.43c0,.09-.08.18-.11.27h1.54Zm14.64-3.86h.34v-1.75h-2.13v.29h1.8Zm-16.89,5.89,0,.09h0Zm8.5-4.9h.38v-.29h-1.69v-1h1.69v-.29h-2v1.61H175Zm-1.54,1.36V461h3.93v-.56h-3.33v-2.2h3.33v-.57H174Zm5-4.82h-1.81v-1.2h1.81v-.31h-1.85l-.29.3v1.51h2.14ZM175,466.85h.41v-.3H173.6v-1.12h1.81v-.31h-2.14v1.73H175Zm-2.18,3H175v-.3h-1.81v-1.2H175v-.31h-1.84l-.29.29Zm2.24-5.18h.34v-1.83h-2.13v.29h1.79Zm1.34-10.31h1.8v1.46h.34v-1.76H176.4Zm18,13.12,1.79,0,0,1.54h.33l0-1.83-2.12,0ZM178.35,465h3.93v-.56H179v-2.06h3.33v-.57h-3.93Zm2.35,3.42h1.79v1.54h.33v-1.83H180.7Zm0,1.94v1.73h2.13v-.3H181v-1.12h1.81v-.31H180.7Zm-3.11-.41v-1.83h-2.12v.3h1.79v1.53Zm-.39,2.14h.4v-.31h-1.81v-1.12h1.81v-.3h-2.14v1.74h1.74Zm-6.56-8.86v1.52h2.14v-.31H171v-1.19h1.81v-.31h-1.84ZM176.8,465h.61v-3.23H173.5v.54h3.3Zm4.49,21.81v1.51h2.14V488h-1.81v-1.2h1.81v-.31h-1.84Zm6.84-30.51h5.72V461h1.07v-5.61h-6.79ZM188,465h3.94v-.56h-3.33v-2.06h3.33v-.57H188Zm5.86,41v-6.52h-7.89v1.1h6.65V506Zm-10.71-43.69h3.3V465H187v-3.23h-3.91Zm3.44,5.06,0,1.51,2.13.05v-.31l-1.81,0,0-1.19,1.81,0v-.31l-1.84,0ZM188,458.2h3.3V461h.61v-3.37H188Zm-.86,55.4v-.31h-1.85l-.29.29v1.52h2.14v-.3H185.3V513.6Zm-2.5-1.58H185v-.3h-1.81V510.6H185v-.31h-2.14V512h1.73Zm4.73,5.23h.4v-.31h-1.81v-1.12h1.81v-.31h-2.14v1.74h1.73Zm.62-8.1v-1.58h-1.83v.25h1.54v1.33Zm-1.83.34V511H190v-.27h-1.56v-1H190v-.27h-1.84Zm-3.89-4.7h-6.71v-4.16h6.71v-1.15h-7.93v6.44h7.93Zm-15,17.88V521.3H161l-1.31,1.3v6.75h9.53V528h-8.06v-5.33Zm-3.57-34.54v1.74h2.13v-.31H166v-1.12h1.81v-.31h-2.14Zm0-1.94h1.79v1.53h.33V485.9h-2.12Zm.73-2.34h4.76v-.68h-4v-2.49h4V480h-4.76Zm13.39,26v-1.83h-2.12v.29h1.79v1.53Zm-2.12.4V512h2.13v-.31H178v-1.12h1.81v-.31h-2.14Zm-4.89-43.41v-1.75h-2.13v.29h1.8v1.46Z" transform="translate(-109 -443.19)"/></svg>