<svg id="Layer_6" data-name="Layer 6" xmlns="http://www.w3.org/2000/svg" xmlns:xlink="http://www.w3.org/1999/xlink" viewBox="0 0 113 117.27"><defs><style>.cls-1{fill:url(#linear-gradient);}</style><linearGradient id="linear-gradient" x1="194.22" y1="449.48" x2="221.46" y2="546.71" gradientUnits="userSpaceOnUse"><stop offset="0" stop-color="#fd5d60"/><stop offset="0.04" stop-color="#fd5f63"/><stop offset="0.66" stop-color="#fe7784"/><stop offset="1" stop-color="#ff8090"/></linearGradient></defs><title>heart-1</title><path class="cls-1" d="M177.39,453.19a28.19,28.19,0,0,0-16.24,5.07c-7.41,5.26-11.89,14.06-12.9,23.09s1.21,18.21,5.16,26.39c7.91,16.35,22.21,28.52,34.47,41.94a203.88,203.88,0,0,1,16.62,20.78,203.88,203.88,0,0,1,16.62-20.78c12.26-13.42,26.56-25.59,34.47-41.94,4-8.18,6.18-17.36,5.16-26.39s-5.49-17.83-12.9-23.09a27.8,27.8,0,0,0-43.35,17.19,28.28,28.28,0,0,0-17-20.36A27.59,27.59,0,0,0,177.39,453.19Z" transform="translate(-148 -453.19)"/></svg>