<svg id="Layer_1" data-name="Layer 1" xmlns="http://www.w3.org/2000/svg" xmlns:xlink="http://www.w3.org/1999/xlink" viewBox="0 0 346.36 137.75"><defs><style>.cls-1{fill:#ffdde2;}.cls-2{fill:url(#linear-gradient);}.cls-3{fill:url(#linear-gradient-2);}.cls-4{fill:url(#linear-gradient-3);}.cls-5{fill:url(#linear-gradient-4);}.cls-6{fill:url(#linear-gradient-5);}.cls-7{fill:url(#linear-gradient-6);}.cls-8{fill:url(#linear-gradient-7);}.cls-9{fill:url(#linear-gradient-8);}</style><linearGradient id="linear-gradient" x1="4.09" y1="201.04" x2="202.54" y2="325.08" gradientUnits="userSpaceOnUse"><stop offset="0" stop-color="#fd5d60"/><stop offset="0.42" stop-color="#ff8090"/><stop offset="1" stop-color="#b9b5e8"/></linearGradient><linearGradient id="linear-gradient-2" x1="63.21" y1="106.45" x2="261.66" y2="230.48" xlink:href="#linear-gradient"/><linearGradient id="linear-gradient-3" x1="-10.12" y1="25.37" x2="188.33" y2="149.4" xlink:href="#linear-gradient"/><linearGradient id="linear-gradient-4" x1="0.35" y1="8.62" x2="198.8" y2="132.66" xlink:href="#linear-gradient"/><linearGradient id="linear-gradient-5" x1="54.55" y1="120.29" x2="253.01" y2="244.33" xlink:href="#linear-gradient"/><linearGradient id="linear-gradient-6" x1="114.44" y1="24.47" x2="312.89" y2="148.51" xlink:href="#linear-gradient"/><linearGradient id="linear-gradient-7" x1="41.12" y1="-56.61" x2="239.57" y2="67.43" xlink:href="#linear-gradient"/><linearGradient id="linear-gradient-8" x1="50.88" y1="-72.23" x2="249.34" y2="51.8" xlink:href="#linear-gradient"/></defs><title> logo-splash</title><polygon class="cls-1" points="149.82 136.96 157.85 136.96 163.96 136.96 163.96 126.45 152.85 126.45 136.87 126.45 133.16 136.96 149.82 136.96"/><polygon class="cls-1" points="163.96 77.11 151.67 77.11 147.96 87.78 163.96 87.78 163.96 77.11"/><polygon class="cls-1" points="332.22 136.96 340.25 136.96 346.36 136.96 346.36 126.45 335.24 126.45 319.27 126.45 315.56 136.96 332.22 136.96"/><polygon class="cls-1" points="346.36 77.11 334.07 77.11 330.36 87.78 346.36 87.78 346.36 77.11"/><path class="cls-2" d="M103.31,229.11v60.64H91.7V239.31H29.24v-10.2Z" transform="translate(-29 -152)"/><path class="cls-3" d="M192.49,152v63.24H180.88v-53H118.42V152Z" transform="translate(-29 -152)"/><polygon class="cls-4" points="89.42 77.11 89.42 136.96 133.16 136.96 136.87 126.45 100.87 126.45 100.87 87.78 147.96 87.78 151.67 77.11 89.42 77.11"/><polygon class="cls-5" points="74.54 11.14 74.54 0.47 10.25 0.47 0 10.61 0 62.93 74.54 62.93 74.54 52.42 11.46 52.42 11.46 11.14 74.54 11.14"/><path class="cls-6" d="M283,229.11v60.64H271.36V239.31H208.9v-10.2Z" transform="translate(-29 -152)"/><path class="cls-7" d="M374.89,152v63.24H363.27v-53H300.81V152Z" transform="translate(-29 -152)"/><polygon class="cls-8" points="271.81 77.11 271.81 136.96 315.56 136.96 319.27 126.45 283.27 126.45 283.27 87.78 330.36 87.78 334.07 77.11 271.81 77.11"/><polygon class="cls-9" points="254.45 11.14 254.45 0.47 190.15 0.47 179.9 10.61 179.9 62.93 254.45 62.93 254.45 52.42 191.36 52.42 191.36 11.14 254.45 11.14"/></svg>