<?xml version="1.0" encoding="utf-8"?>
<!-- Generator: Adobe Illustrator 23.0.3, SVG Export Plug-In . SVG Version: 6.00 Build 0)  -->
<svg version="1.1" xmlns="http://www.w3.org/2000/svg" xmlns:xlink="http://www.w3.org/1999/xlink" x="0px" y="0px"
	 viewBox="0 0 414 736" style="enable-background:new 0 0 414 736;" xml:space="preserve">
<style type="text/css">
	.st0{display:none;}
	.st1{display:inline;}
	.st2{fill:#FFDDE2;}
	.st3{fill:url(#SVGID_1_);}
	.st4{fill:url(#SVGID_2_);}
	.st5{fill:url(#SVGID_3_);}
	.st6{fill:url(#SVGID_4_);}
	.st7{fill:url(#SVGID_5_);}
	.st8{fill:url(#SVGID_6_);}
	.st9{fill:url(#SVGID_7_);}
	.st10{fill:url(#SVGID_8_);}
	.st11{fill:#FFFFFF;}
	.st12{display:inline;fill:url(#SVGID_9_);}
</style>
<g id="Layer_1" class="st0">
	<g class="st1">
		<g>
			<polygon class="st2" points="178.82,288.96 186.86,288.96 192.96,288.96 192.96,278.45 181.85,278.45 165.87,278.45 
				162.16,288.96 			"/>
			<polygon class="st2" points="192.96,229.11 180.67,229.11 176.96,239.78 192.96,239.78 			"/>
			<polygon class="st2" points="361.22,288.96 369.25,288.96 375.36,288.96 375.36,278.45 364.24,278.45 348.27,278.45 
				344.56,288.96 			"/>
			<polygon class="st2" points="375.36,229.11 363.07,229.11 359.36,239.78 375.36,239.78 			"/>
		</g>
		<g>
			<g>
				<linearGradient id="SVGID_1_" gradientUnits="userSpaceOnUse" x1="4.0861" y1="201.0423" x2="202.5393" y2="325.0755">
					<stop  offset="0" style="stop-color:#FD5D60"/>
					<stop  offset="0.4151" style="stop-color:#FF8090"/>
					<stop  offset="1" style="stop-color:#B9B5E8"/>
				</linearGradient>
				<path class="st3" d="M103.31,229.11v60.64H91.7v-50.44H29.24v-10.2H103.31z"/>
			</g>
			<g>
				<linearGradient id="SVGID_2_" gradientUnits="userSpaceOnUse" x1="63.2066" y1="106.4494" x2="261.6599" y2="230.4827">
					<stop  offset="0" style="stop-color:#FD5D60"/>
					<stop  offset="0.4151" style="stop-color:#FF8090"/>
					<stop  offset="1" style="stop-color:#B9B5E8"/>
				</linearGradient>
				<path class="st4" d="M192.49,152v63.24h-11.61V162.2h-62.46V152H192.49z"/>
			</g>
			<linearGradient id="SVGID_3_" gradientUnits="userSpaceOnUse" x1="18.8816" y1="177.3695" x2="217.3348" y2="301.4027">
				<stop  offset="0" style="stop-color:#FD5D60"/>
				<stop  offset="0.4151" style="stop-color:#FF8090"/>
				<stop  offset="1" style="stop-color:#B9B5E8"/>
			</linearGradient>
			<polygon class="st5" points="118.42,229.11 118.42,288.96 162.16,288.96 165.87,278.45 129.87,278.45 129.87,239.78 
				176.96,239.78 180.67,229.11 			"/>
			<g>
				<linearGradient id="SVGID_4_" gradientUnits="userSpaceOnUse" x1="29.3479" y1="160.6234" x2="227.8011" y2="284.6567">
					<stop  offset="0" style="stop-color:#FD5D60"/>
					<stop  offset="0.4151" style="stop-color:#FF8090"/>
					<stop  offset="1" style="stop-color:#B9B5E8"/>
				</linearGradient>
				<polygon class="st6" points="103.54,163.14 103.54,152.47 39.25,152.47 29,162.61 29,214.93 103.54,214.93 103.54,204.42 
					40.46,204.42 40.46,163.14 				"/>
			</g>
		</g>
		<g>
			<g>
				<linearGradient id="SVGID_5_" gradientUnits="userSpaceOnUse" x1="54.5544" y1="120.293" x2="253.0076" y2="244.3263">
					<stop  offset="0" style="stop-color:#FD5D60"/>
					<stop  offset="0.4151" style="stop-color:#FF8090"/>
					<stop  offset="1" style="stop-color:#B9B5E8"/>
				</linearGradient>
				<path class="st7" d="M282.98,229.11v60.64h-11.61v-50.44H208.9v-10.2H282.98z"/>
			</g>
			<linearGradient id="SVGID_6_" gradientUnits="userSpaceOnUse" x1="114.4415" y1="24.4736" x2="312.8947" y2="148.5069">
				<stop  offset="0" style="stop-color:#FD5D60"/>
				<stop  offset="0.4151" style="stop-color:#FF8090"/>
				<stop  offset="1" style="stop-color:#B9B5E8"/>
			</linearGradient>
			<path class="st8" d="M374.89,152v63.24h-11.61V162.2h-62.46V152H374.89z"/>
			<linearGradient id="SVGID_7_" gradientUnits="userSpaceOnUse" x1="70.1165" y1="95.3936" x2="268.5697" y2="219.4269">
				<stop  offset="0" style="stop-color:#FD5D60"/>
				<stop  offset="0.4151" style="stop-color:#FF8090"/>
				<stop  offset="1" style="stop-color:#B9B5E8"/>
			</linearGradient>
			<polygon class="st9" points="300.81,229.11 300.81,288.96 344.56,288.96 348.27,278.45 312.27,278.45 312.27,239.78 
				359.36,239.78 363.07,229.11 			"/>
			<g>
				<linearGradient id="SVGID_8_" gradientUnits="userSpaceOnUse" x1="79.8824" y1="79.7682" x2="278.3356" y2="203.8015">
					<stop  offset="0" style="stop-color:#FD5D60"/>
					<stop  offset="0.4151" style="stop-color:#FF8090"/>
					<stop  offset="1" style="stop-color:#B9B5E8"/>
				</linearGradient>
				<polygon class="st10" points="283.45,163.14 283.45,152.47 219.15,152.47 208.9,162.61 208.9,214.93 283.45,214.93 
					283.45,204.42 220.36,204.42 220.36,163.14 				"/>
			</g>
		</g>
	</g>
</g>
<g id="Layer_1_copy">
	<g>
		<g>
			<polygon class="st11" points="178.82,288.96 186.86,288.96 192.96,288.96 192.96,278.45 181.85,278.45 165.87,278.45 
				162.16,288.96 			"/>
			<polygon class="st11" points="192.96,229.11 180.67,229.11 176.96,239.78 192.96,239.78 			"/>
			<polygon class="st11" points="361.22,288.96 369.25,288.96 375.36,288.96 375.36,278.45 364.24,278.45 348.27,278.45 
				344.56,288.96 			"/>
			<polygon class="st11" points="375.36,229.11 363.07,229.11 359.36,239.78 375.36,239.78 			"/>
		</g>
		<g>
			<g>
				<path class="st11" d="M103.31,229.11v60.64H91.7v-50.44H29.24v-10.2H103.31z"/>
			</g>
			<g>
				<path class="st11" d="M192.49,152v63.24h-11.61V162.2h-62.46V152H192.49z"/>
			</g>
			<polygon class="st11" points="118.42,229.11 118.42,288.96 162.16,288.96 165.87,278.45 129.87,278.45 129.87,239.78 
				176.96,239.78 180.67,229.11 			"/>
			<g>
				<polygon class="st11" points="103.54,163.14 103.54,152.47 39.25,152.47 29,162.61 29,214.93 103.54,214.93 103.54,204.42 
					40.46,204.42 40.46,163.14 				"/>
			</g>
		</g>
		<g>
			<g>
				<path class="st11" d="M282.98,229.11v60.64h-11.61v-50.44H208.9v-10.2H282.98z"/>
			</g>
			<path class="st11" d="M374.89,152v63.24h-11.61V162.2h-62.46V152H374.89z"/>
			<polygon class="st11" points="300.81,229.11 300.81,288.96 344.56,288.96 348.27,278.45 312.27,278.45 312.27,239.78 
				359.36,239.78 363.07,229.11 			"/>
			<g>
				<polygon class="st11" points="283.45,163.14 283.45,152.47 219.15,152.47 208.9,162.61 208.9,214.93 283.45,214.93 
					283.45,204.42 220.36,204.42 220.36,163.14 				"/>
			</g>
		</g>
	</g>
</g>
<g id="Layer_2" class="st0">
	<linearGradient id="SVGID_9_" gradientUnits="userSpaceOnUse" x1="207" y1="4.4024" x2="207" y2="726.6549">
		<stop  offset="0" style="stop-color:#FF8090"/>
		<stop  offset="0.2331" style="stop-color:#F38AA0"/>
		<stop  offset="0.6823" style="stop-color:#D2A2C8"/>
		<stop  offset="1" style="stop-color:#B9B5E8"/>
	</linearGradient>
	<rect x="0" class="st12" width="414" height="736"/>
</g>
</svg>
